<svg xmlns="http://www.w3.org/2000/svg" width="1440" height="900" viewBox="0 0 1440 900">
  <!-- Background -->
  <rect width="1440" height="900" fill="#F1F5F9"/>

  <!-- Browser chrome -->
  <rect x="0" y="0" width="1440" height="40" rx="0" fill="#E2E8F0"/>
  <circle cx="20" cy="20" r="6" fill="#EF4444"/>
  <circle cx="40" cy="20" r="6" fill="#F59E0B"/>
  <circle cx="60" cy="20" r="6" fill="#22C55E"/>
  <rect x="200" y="10" width="800" height="20" rx="4" fill="#CBD5E1"/>
  <text x="600" y="24" text-anchor="middle" font-family="Inter,sans-serif" font-size="11" fill="#64748B">app.mobiris.ng/</text>

  <!-- Sidebar -->
  <rect x="0" y="40" width="220" height="860" fill="#0F172A"/>
  <text x="110" y="80" text-anchor="middle" font-family="Inter,sans-serif" font-size="16" font-weight="700" fill="#FFFFFF">Mobiris</text>
  <rect x="10" y="100" width="200" height="32" rx="4" fill="#1E293B"/>
  <text x="30" y="121" font-family="Inter,sans-serif" font-size="12" fill="#94A3B8">Dashboard</text>
  <text x="30" y="155" font-family="Inter,sans-serif" font-size="12" fill="#64748B">Drivers</text>
  <text x="30" y="183" font-family="Inter,sans-serif" font-size="12" fill="#64748B">Vehicles</text>
  <text x="30" y="211" font-family="Inter,sans-serif" font-size="12" fill="#64748B">Assignments</text>
  <text x="30" y="239" font-family="Inter,sans-serif" font-size="12" fill="#64748B">Remittance</text>
  <text x="30" y="267" font-family="Inter,sans-serif" font-size="12" fill="#64748B">Reports</text>
  <text x="30" y="295" font-family="Inter,sans-serif" font-size="12" fill="#64748B">Wallet</text>
  <text x="30" y="323" font-family="Inter,sans-serif" font-size="12" fill="#64748B">Settings</text>

  <!-- Main content -->
  <rect x="220" y="40" width="1220" height="860" fill="#F8FAFC"/>

  <!-- Page header -->
  <text x="240" y="90" font-family="Inter,sans-serif" font-size="22" font-weight="700" fill="#0F172A">Dashboard</text>
  <text x="240" y="112" font-family="Inter,sans-serif" font-size="13" fill="#64748B">Tuesday, 24 March 2026 · Mobiris Lagos Fleet Ltd</text>

  <!-- Stat cards row -->
  <!-- Card 1: Active Vehicles -->
  <rect x="240" y="130" width="270" height="100" rx="8" fill="#FFFFFF" stroke="#E2E8F0" stroke-width="1"/>
  <text x="260" y="160" font-family="Inter,sans-serif" font-size="12" fill="#64748B">Active Vehicles</text>
  <text x="260" y="200" font-family="Inter,sans-serif" font-size="36" font-weight="700" fill="#0F172A">38</text>
  <text x="320" y="200" font-family="Inter,sans-serif" font-size="13" fill="#22C55E">/ 50 total</text>

  <!-- Card 2: Active Drivers -->
  <rect x="530" y="130" width="270" height="100" rx="8" fill="#FFFFFF" stroke="#E2E8F0" stroke-width="1"/>
  <text x="550" y="160" font-family="Inter,sans-serif" font-size="12" fill="#64748B">Active Drivers</text>
  <text x="550" y="200" font-family="Inter,sans-serif" font-size="36" font-weight="700" fill="#0F172A">42</text>
  <text x="610" y="200" font-family="Inter,sans-serif" font-size="13" fill="#64748B">/ 55 enrolled</text>

  <!-- Card 3: Today's Remittance -->
  <rect x="820" y="130" width="270" height="100" rx="8" fill="#FFFFFF" stroke="#E2E8F0" stroke-width="1"/>
  <text x="840" y="160" font-family="Inter,sans-serif" font-size="12" fill="#64748B">Today's Remittance</text>
  <text x="840" y="200" font-family="Inter,sans-serif" font-size="28" font-weight="700" fill="#0F172A">₦387,500</text>
  <text x="840" y="218" font-family="Inter,sans-serif" font-size="12" fill="#22C55E">32 confirmed · 4 pending</text>

  <!-- Card 4: Readiness -->
  <rect x="1110" y="130" width="270" height="100" rx="8" fill="#FFFFFF" stroke="#E2E8F0" stroke-width="1"/>
  <text x="1130" y="160" font-family="Inter,sans-serif" font-size="12" fill="#64748B">Fleet Readiness</text>
  <text x="1130" y="200" font-family="Inter,sans-serif" font-size="36" font-weight="700" fill="#2563EB">76%</text>
  <text x="1188" y="200" font-family="Inter,sans-serif" font-size="13" fill="#64748B">operational</text>

  <!-- Operational Readiness chart section -->
  <rect x="240" y="250" width="700" height="300" rx="8" fill="#FFFFFF" stroke="#E2E8F0" stroke-width="1"/>
  <text x="260" y="280" font-family="Inter,sans-serif" font-size="14" font-weight="600" fill="#0F172A">Operational Readiness — Last 7 Days</text>
  <!-- Simple bar chart bars -->
  <rect x="290" y="380" width="50" height="120" rx="3" fill="#2563EB" opacity="0.8"/>
  <rect x="370" y="340" width="50" height="160" rx="3" fill="#2563EB" opacity="0.8"/>
  <rect x="450" y="360" width="50" height="140" rx="3" fill="#2563EB" opacity="0.8"/>
  <rect x="530" y="320" width="50" height="180" rx="3" fill="#2563EB" opacity="0.8"/>
  <rect x="610" y="350" width="50" height="150" rx="3" fill="#2563EB" opacity="0.8"/>
  <rect x="690" y="330" width="50" height="170" rx="3" fill="#2563EB" opacity="0.8"/>
  <rect x="770" y="310" width="50" height="190" rx="3" fill="#2563EB"/>
  <text x="315" y="520" text-anchor="middle" font-family="Inter,sans-serif" font-size="11" fill="#64748B">Mon</text>
  <text x="395" y="520" text-anchor="middle" font-family="Inter,sans-serif" font-size="11" fill="#64748B">Tue</text>
  <text x="475" y="520" text-anchor="middle" font-family="Inter,sans-serif" font-size="11" fill="#64748B">Wed</text>
  <text x="555" y="520" text-anchor="middle" font-family="Inter,sans-serif" font-size="11" fill="#64748B">Thu</text>
  <text x="635" y="520" text-anchor="middle" font-family="Inter,sans-serif" font-size="11" fill="#64748B">Fri</text>
  <text x="715" y="520" text-anchor="middle" font-family="Inter,sans-serif" font-size="11" fill="#64748B">Sat</text>
  <text x="795" y="520" text-anchor="middle" font-family="Inter,sans-serif" font-size="11" fill="#64748B">Today</text>

  <!-- Recent assignments panel -->
  <rect x="960" y="250" width="420" height="300" rx="8" fill="#FFFFFF" stroke="#E2E8F0" stroke-width="1"/>
  <text x="980" y="280" font-family="Inter,sans-serif" font-size="14" font-weight="600" fill="#0F172A">Recent Assignments</text>
  <!-- Assignment rows -->
  <line x1="960" y1="295" x2="1380" y2="295" stroke="#F1F5F9" stroke-width="1"/>
  <text x="980" y="318" font-family="Inter,sans-serif" font-size="12" fill="#0F172A">Adeyemi Bello</text>
  <text x="1220" y="318" font-family="Inter,sans-serif" font-size="11" fill="#FFFFFF">
    <tspan>
      <rect x="1200" y="305" width="60" height="18" rx="9" fill="#22C55E"/>
    </tspan>
  </text>
  <rect x="1200" y="305" width="60" height="18" rx="9" fill="#22C55E"/>
  <text x="1230" y="318" text-anchor="middle" font-family="Inter,sans-serif" font-size="10" fill="#FFFFFF">ACTIVE</text>
  <text x="980" y="344" font-family="Inter,sans-serif" font-size="11" fill="#64748B">LAG-001 · Started 07:32</text>

  <line x1="960" y1="355" x2="1380" y2="355" stroke="#F1F5F9" stroke-width="1"/>
  <text x="980" y="378" font-family="Inter,sans-serif" font-size="12" fill="#0F172A">Chukwudi Okafor</text>
  <rect x="1200" y="365" width="60" height="18" rx="9" fill="#22C55E"/>
  <text x="1230" y="378" text-anchor="middle" font-family="Inter,sans-serif" font-size="10" fill="#FFFFFF">ACTIVE</text>
  <text x="980" y="404" font-family="Inter,sans-serif" font-size="11" fill="#64748B">LAG-007 · Started 07:15</text>

  <line x1="960" y1="415" x2="1380" y2="415" stroke="#F1F5F9" stroke-width="1"/>
  <text x="980" y="438" font-family="Inter,sans-serif" font-size="12" fill="#0F172A">Emeka Nwosu</text>
  <rect x="1200" y="425" width="80" height="18" rx="9" fill="#64748B"/>
  <text x="1240" y="438" text-anchor="middle" font-family="Inter,sans-serif" font-size="10" fill="#FFFFFF">COMPLETED</text>
  <text x="980" y="454" font-family="Inter,sans-serif" font-size="11" fill="#64748B">LAG-003 · Ended 14:20</text>

  <line x1="960" y1="465" x2="1380" y2="465" stroke="#F1F5F9" stroke-width="1"/>
  <text x="980" y="488" font-family="Inter,sans-serif" font-size="12" fill="#0F172A">Taiwo Adeleke</text>
  <rect x="1200" y="475" width="60" height="18" rx="9" fill="#22C55E"/>
  <text x="1230" y="488" text-anchor="middle" font-family="Inter,sans-serif" font-size="10" fill="#FFFFFF">ACTIVE</text>
  <text x="980" y="504" font-family="Inter,sans-serif" font-size="11" fill="#64748B">LAG-012 · Started 08:05</text>

  <!-- Watermark label -->
  <rect x="0" y="860" width="1440" height="40" fill="#E2E8F0" opacity="0.6"/>
  <text x="720" y="885" text-anchor="middle" font-family="Inter,sans-serif" font-size="12" fill="#64748B">PLACEHOLDER — Replace with actual screenshot: 01-dashboard-operational-readiness.png (1440×900)</text>
</svg>
