<svg xmlns="http://www.w3.org/2000/svg" width="1440" height="900" viewBox="0 0 1440 900">
  <rect width="1440" height="900" fill="#F1F5F9"/>
  <rect x="0" y="0" width="1440" height="40" rx="0" fill="#E2E8F0"/>
  <circle cx="20" cy="20" r="6" fill="#EF4444"/>
  <circle cx="40" cy="20" r="6" fill="#F59E0B"/>
  <circle cx="60" cy="20" r="6" fill="#22C55E"/>
  <rect x="200" y="10" width="800" height="20" rx="4" fill="#CBD5E1"/>
  <text x="600" y="24" text-anchor="middle" font-family="Inter,sans-serif" font-size="11" fill="#64748B">app.mobiris.ng/drivers</text>
  <rect x="0" y="40" width="220" height="860" fill="#0F172A"/>
  <text x="110" y="80" text-anchor="middle" font-family="Inter,sans-serif" font-size="16" font-weight="700" fill="#FFFFFF">Mobiris</text>
  <text x="30" y="121" font-family="Inter,sans-serif" font-size="12" fill="#64748B">Dashboard</text>
  <rect x="10" y="130" width="200" height="32" rx="4" fill="#1E293B"/>
  <text x="30" y="151" font-family="Inter,sans-serif" font-size="12" fill="#94A3B8">Drivers</text>
  <text x="30" y="183" font-family="Inter,sans-serif" font-size="12" fill="#64748B">Vehicles</text>
  <text x="30" y="211" font-family="Inter,sans-serif" font-size="12" fill="#64748B">Assignments</text>
  <text x="30" y="239" font-family="Inter,sans-serif" font-size="12" fill="#64748B">Remittance</text>

  <rect x="220" y="40" width="1220" height="860" fill="#F8FAFC"/>
  <text x="240" y="90" font-family="Inter,sans-serif" font-size="22" font-weight="700" fill="#0F172A">Drivers</text>
  <text x="240" y="112" font-family="Inter,sans-serif" font-size="13" fill="#64748B">55 drivers enrolled · 42 active</text>
  <rect x="1260" y="68" width="140" height="36" rx="6" fill="#2563EB"/>
  <text x="1330" y="91" text-anchor="middle" font-family="Inter,sans-serif" font-size="13" font-weight="600" fill="#FFFFFF">+ Add Driver</text>

  <!-- Search bar -->
  <rect x="240" y="130" width="400" height="36" rx="6" fill="#FFFFFF" stroke="#E2E8F0" stroke-width="1"/>
  <text x="260" y="153" font-family="Inter,sans-serif" font-size="12" fill="#94A3B8">Search drivers...</text>

  <!-- Table header -->
  <rect x="240" y="178" width="1180" height="40" rx="6" fill="#F1F5F9"/>
  <text x="260" y="203" font-family="Inter,sans-serif" font-size="12" font-weight="600" fill="#64748B">DRIVER</text>
  <text x="550" y="203" font-family="Inter,sans-serif" font-size="12" font-weight="600" fill="#64748B">FLEET</text>
  <text x="720" y="203" font-family="Inter,sans-serif" font-size="12" font-weight="600" fill="#64748B">STATUS</text>
  <text x="870" y="203" font-family="Inter,sans-serif" font-size="12" font-weight="600" fill="#64748B">VERIFICATION</text>
  <text x="1060" y="203" font-family="Inter,sans-serif" font-size="12" font-weight="600" fill="#64748B">LICENCE EXPIRY</text>
  <text x="1270" y="203" font-family="Inter,sans-serif" font-size="12" font-weight="600" fill="#64748B">ACTIONS</text>

  <!-- Driver rows -->
  <!-- Row 1 -->
  <rect x="240" y="218" width="1180" height="56" rx="0" fill="#FFFFFF" stroke="#F1F5F9" stroke-width="1"/>
  <circle cx="270" cy="246" r="16" fill="#DBEAFE"/>
  <text x="270" y="251" text-anchor="middle" font-family="Inter,sans-serif" font-size="12" font-weight="700" fill="#2563EB">AB</text>
  <text x="300" y="241" font-family="Inter,sans-serif" font-size="13" font-weight="600" fill="#0F172A">Adeyemi Bello</text>
  <text x="300" y="258" font-family="Inter,sans-serif" font-size="11" fill="#64748B">+234 801 234 5678</text>
  <text x="550" y="249" font-family="Inter,sans-serif" font-size="12" fill="#0F172A">Lagos A Fleet</text>
  <rect x="720" y="233" width="60" height="20" rx="10" fill="#DCFCE7"/>
  <text x="750" y="247" text-anchor="middle" font-family="Inter,sans-serif" font-size="10" font-weight="600" fill="#16A34A">ACTIVE</text>
  <rect x="870" y="233" width="80" height="20" rx="10" fill="#DCFCE7"/>
  <text x="910" y="247" text-anchor="middle" font-family="Inter,sans-serif" font-size="10" font-weight="600" fill="#16A34A">VERIFIED ✓</text>
  <text x="1060" y="249" font-family="Inter,sans-serif" font-size="12" fill="#0F172A">14 Aug 2026</text>

  <!-- Row 2 -->
  <rect x="240" y="274" width="1180" height="56" rx="0" fill="#FFFFFF" stroke="#F1F5F9" stroke-width="1"/>
  <circle cx="270" cy="302" r="16" fill="#DBEAFE"/>
  <text x="270" y="307" text-anchor="middle" font-family="Inter,sans-serif" font-size="12" font-weight="700" fill="#2563EB">CO</text>
  <text x="300" y="297" font-family="Inter,sans-serif" font-size="13" font-weight="600" fill="#0F172A">Chukwudi Okafor</text>
  <text x="300" y="314" font-family="Inter,sans-serif" font-size="11" fill="#64748B">+234 802 345 6789</text>
  <text x="550" y="305" font-family="Inter,sans-serif" font-size="12" fill="#0F172A">Lagos B Fleet</text>
  <rect x="720" y="289" width="60" height="20" rx="10" fill="#DCFCE7"/>
  <text x="750" y="303" text-anchor="middle" font-family="Inter,sans-serif" font-size="10" font-weight="600" fill="#16A34A">ACTIVE</text>
  <rect x="870" y="289" width="80" height="20" rx="10" fill="#DCFCE7"/>
  <text x="910" y="303" text-anchor="middle" font-family="Inter,sans-serif" font-size="10" font-weight="600" fill="#16A34A">VERIFIED ✓</text>
  <text x="1060" y="305" font-family="Inter,sans-serif" font-size="12" fill="#0F172A">03 Feb 2027</text>

  <!-- Row 3 - Pending -->
  <rect x="240" y="330" width="1180" height="56" rx="0" fill="#FFFFFF" stroke="#F1F5F9" stroke-width="1"/>
  <circle cx="270" cy="358" r="16" fill="#FEF3C7"/>
  <text x="270" y="363" text-anchor="middle" font-family="Inter,sans-serif" font-size="12" font-weight="700" fill="#D97706">KA</text>
  <text x="300" y="353" font-family="Inter,sans-serif" font-size="13" font-weight="600" fill="#0F172A">Kehinde Adesanya</text>
  <text x="300" y="370" font-family="Inter,sans-serif" font-size="11" fill="#64748B">+234 803 456 7890</text>
  <text x="550" y="361" font-family="Inter,sans-serif" font-size="12" fill="#0F172A">Lagos A Fleet</text>
  <rect x="720" y="345" width="70" height="20" rx="10" fill="#FEF3C7"/>
  <text x="755" y="359" text-anchor="middle" font-family="Inter,sans-serif" font-size="10" font-weight="600" fill="#D97706">PENDING</text>
  <rect x="870" y="345" width="90" height="20" rx="10" fill="#FEF3C7"/>
  <text x="915" y="359" text-anchor="middle" font-family="Inter,sans-serif" font-size="10" font-weight="600" fill="#D97706">IN PROGRESS</text>
  <text x="1060" y="361" font-family="Inter,sans-serif" font-size="12" fill="#64748B">—</text>

  <!-- Row 4 - Suspended -->
  <rect x="240" y="386" width="1180" height="56" rx="0" fill="#FFFFFF" stroke="#F1F5F9" stroke-width="1"/>
  <circle cx="270" cy="414" r="16" fill="#FEE2E2"/>
  <text x="270" y="419" text-anchor="middle" font-family="Inter,sans-serif" font-size="12" font-weight="700" fill="#DC2626">TF</text>
  <text x="300" y="409" font-family="Inter,sans-serif" font-size="13" font-weight="600" fill="#0F172A">Tunde Fashola</text>
  <text x="300" y="426" font-family="Inter,sans-serif" font-size="11" fill="#64748B">+234 804 567 8901</text>
  <text x="550" y="417" font-family="Inter,sans-serif" font-size="12" fill="#0F172A">Lagos C Fleet</text>
  <rect x="720" y="401" width="80" height="20" rx="10" fill="#FEE2E2"/>
  <text x="760" y="415" text-anchor="middle" font-family="Inter,sans-serif" font-size="10" font-weight="600" fill="#DC2626">SUSPENDED</text>
  <rect x="870" y="401" width="80" height="20" rx="10" fill="#DCFCE7"/>
  <text x="910" y="415" text-anchor="middle" font-family="Inter,sans-serif" font-size="10" font-weight="600" fill="#16A34A">VERIFIED ✓</text>
  <text x="1060" y="417" font-family="Inter,sans-serif" font-size="12" fill="#EF4444">12 Jan 2026 ⚠</text>

  <!-- Row 5 -->
  <rect x="240" y="442" width="1180" height="56" rx="0" fill="#FFFFFF" stroke="#F1F5F9" stroke-width="1"/>
  <circle cx="270" cy="470" r="16" fill="#DBEAFE"/>
  <text x="270" y="475" text-anchor="middle" font-family="Inter,sans-serif" font-size="12" font-weight="700" fill="#2563EB">EN</text>
  <text x="300" y="465" font-family="Inter,sans-serif" font-size="13" font-weight="600" fill="#0F172A">Emeka Nwosu</text>
  <text x="300" y="482" font-family="Inter,sans-serif" font-size="11" fill="#64748B">+234 805 678 9012</text>
  <text x="550" y="473" font-family="Inter,sans-serif" font-size="12" fill="#0F172A">Lagos B Fleet</text>
  <rect x="720" y="457" width="60" height="20" rx="10" fill="#DCFCE7"/>
  <text x="750" y="471" text-anchor="middle" font-family="Inter,sans-serif" font-size="10" font-weight="600" fill="#16A34A">ACTIVE</text>
  <rect x="870" y="457" width="80" height="20" rx="10" fill="#DCFCE7"/>
  <text x="910" y="471" text-anchor="middle" font-family="Inter,sans-serif" font-size="10" font-weight="600" fill="#16A34A">VERIFIED ✓</text>
  <text x="1060" y="473" font-family="Inter,sans-serif" font-size="12" fill="#0F172A">30 Nov 2026</text>

  <!-- Pagination -->
  <text x="240" y="560" font-family="Inter,sans-serif" font-size="12" fill="#64748B">Showing 1–10 of 55 drivers</text>

  <rect x="0" y="860" width="1440" height="40" fill="#E2E8F0" opacity="0.6"/>
  <text x="720" y="885" text-anchor="middle" font-family="Inter,sans-serif" font-size="12" fill="#64748B">PLACEHOLDER — Replace with actual screenshot: 02-driver-list.png (1440×900)</text>
</svg>
